<svg width="22" height="25" viewBox="0 0 22 25" fill="none" xmlns="http://www.w3.org/2000/svg">
  <path d="M12.657 20.0559H13.7904C13.9407 20.0559 14.0849 19.995 14.1912 19.8865C14.2974 19.778 14.3571 19.6308 14.3571 19.4774V9.06373C14.3571 8.9103 14.2974 8.76314 14.1912 8.65465C14.0849 8.54615 13.9407 8.4852 13.7904 8.4852H12.657C12.5066 8.4852 12.3625 8.54615 12.2562 8.65465C12.1499 8.76314 12.0902 8.9103 12.0902 9.06373V19.4774C12.0902 19.6308 12.1499 19.778 12.2562 19.8865C12.3625 19.995 12.5066 20.0559 12.657 20.0559ZM20.4023 3.85691H16.5102L14.9045 1.12332C14.703 0.780549 14.4179 0.49691 14.0771 0.300047C13.7363 0.103183 13.3513 -0.000190116 12.9597 2.62485e-07H8.19821C7.80676 -2.35642e-05 7.42198 0.103429 7.08133 0.300284C6.74068 0.49714 6.45576 0.780689 6.25433 1.12332L4.64765 3.85691H0.755639C0.555231 3.85691 0.363031 3.93818 0.221322 4.08284C0.0796118 4.2275 0 4.42371 0 4.62829L0 5.39967C0 5.60425 0.0796118 5.80046 0.221322 5.94512C0.363031 6.08978 0.555231 6.17105 0.755639 6.17105H1.51128V22.3701C1.51128 22.9838 1.75011 23.5724 2.17524 24.0064C2.60037 24.4404 3.17697 24.6842 3.7782 24.6842H17.3797C17.9809 24.6842 18.5575 24.4404 18.9827 24.0064C19.4078 23.5724 19.6466 22.9838 19.6466 22.3701V6.17105H20.4023C20.6027 6.17105 20.7949 6.08978 20.9366 5.94512C21.0783 5.80046 21.1579 5.60425 21.1579 5.39967V4.62829C21.1579 4.42371 21.0783 4.2275 20.9366 4.08284C20.7949 3.93818 20.6027 3.85691 20.4023 3.85691ZM8.11556 2.45444C8.14082 2.41153 8.17655 2.37604 8.21927 2.35145C8.26198 2.32686 8.31022 2.314 8.35926 2.31414H12.7986C12.8476 2.31409 12.8957 2.32698 12.9384 2.35157C12.981 2.37616 13.0166 2.4116 13.0419 2.45444L13.8664 3.85691H7.29144L8.11556 2.45444ZM17.3797 22.3701H3.7782V6.17105H17.3797V22.3701ZM7.36748 20.0559H8.50094C8.65125 20.0559 8.79539 19.995 8.90168 19.8865C9.00796 19.778 9.06767 19.6308 9.06767 19.4774V9.06373C9.06767 8.9103 9.00796 8.76314 8.90168 8.65465C8.79539 8.54615 8.65125 8.4852 8.50094 8.4852H7.36748C7.21718 8.4852 7.07303 8.54615 6.96674 8.65465C6.86046 8.76314 6.80075 8.9103 6.80075 9.06373V19.4774C6.80075 19.6308 6.86046 19.778 6.96674 19.8865C7.07303 19.995 7.21718 20.0559 7.36748 20.0559Z" fill="#DF3D0A"/>
</svg>