<svg width="27" height="23" viewBox="0 0 27 23" fill="none" xmlns="http://www.w3.org/2000/svg">
<path d="M18.4722 15.4415L19.9416 14.0091C20.1711 13.7853 20.5706 13.942 20.5706 14.2643V20.7725C20.5706 21.9587 19.5834 22.9211 18.3666 22.9211H2.20399C0.987206 22.9211 0 21.9587 0 20.7725V5.0166C0 3.83043 0.987206 2.86807 2.20399 2.86807H14.7622C15.0882 2.86807 15.2535 3.25301 15.0239 3.4813L13.5546 4.91365C13.4857 4.98079 13.3939 5.0166 13.2928 5.0166H2.20399V20.7725H18.3666V15.6921C18.3666 15.5981 18.4034 15.5086 18.4722 15.4415ZM25.6628 6.40867L13.6051 18.1629L9.45422 18.6106C8.25121 18.7404 7.22727 17.7511 7.36043 16.5695L7.81959 12.523L19.8773 0.768772C20.9288 -0.256257 22.6277 -0.256257 23.6746 0.768772L25.6582 2.70245C26.7097 3.72748 26.7097 5.38812 25.6628 6.40867ZM21.1262 7.79179L18.4585 5.19117L9.92716 13.5123L9.59197 16.4352L12.5903 16.1084L21.1262 7.79179ZM24.1016 4.22433L22.118 2.29065C21.9298 2.10713 21.6221 2.10713 21.4384 2.29065L20.0196 3.67377L22.6874 6.27439L24.1062 4.89127C24.2899 4.70327 24.2899 4.40785 24.1016 4.22433Z" fill="#F4BA40"/>
</svg>
