<svg width="24" height="24" viewBox="0 0 24 24" fill="none" xmlns="http://www.w3.org/2000/svg">
<path d="M22.0594 9.137C21.6322 8.57707 21.2772 8.1105 21.1491 7.61888C21.8088 7.60499 22.3413 7.0644 22.3413 6.40142C22.3413 5.72973 21.7948 5.18327 21.1231 5.18327H19.0225C19.0227 5.17462 19.0238 5.16612 19.0238 5.15736V4.32798C19.0238 3.88494 18.6633 3.52453 18.2203 3.52453H17.3637C17.364 3.51587 17.365 3.50737 17.365 3.49861V2.66923C17.365 2.22619 17.0046 1.86578 16.5616 1.86578H15.705C15.7052 1.85712 15.7063 1.84862 15.7063 1.83986V1.01049C15.7063 0.567446 15.3458 0.207031 14.9028 0.207031H12.4147C12.2629 0.207031 12.1212 0.250159 12 0.32361C11.8788 0.250107 11.7371 0.207031 11.5853 0.207031H9.09719C8.65415 0.207031 8.29374 0.567446 8.29374 1.01049V1.83986C8.29374 1.84862 8.29477 1.85712 8.29503 1.86578H7.43844C6.9954 1.86578 6.63499 2.22619 6.63499 2.66923V3.49861C6.63499 3.50737 6.63603 3.51587 6.63628 3.52453H5.7797C5.33666 3.52453 4.97624 3.88494 4.97624 4.32798V5.15736C4.97624 5.16612 4.97728 5.17462 4.97754 5.18327H2.87689C2.2052 5.18327 1.65875 5.72973 1.65875 6.40142C1.65875 7.0644 2.19121 7.60499 2.85092 7.61888C2.72278 8.1105 2.36781 8.57702 1.94063 9.137C1.07601 10.2703 0 11.6808 0 14.2805C0 16.7319 1.26298 19.0293 3.55635 20.7493C3.78283 20.9191 4.01702 21.0809 4.25775 21.2353L3.86063 22.0296C3.56055 22.6303 3.80496 23.3635 4.40553 23.6638C4.57633 23.7493 4.75946 23.7926 4.94975 23.7926C5.41436 23.7926 5.8321 23.5345 6.03997 23.119L6.42759 22.3438C8.12615 23.0192 10.0272 23.3777 12.0001 23.3777C13.9742 23.3777 15.8765 23.0187 17.576 22.3424L17.9643 23.1191C18.1721 23.5345 18.5899 23.7926 19.0545 23.7926C19.2448 23.7926 19.4279 23.7493 19.5988 23.6638C20.1992 23.3634 20.4436 22.6303 20.1435 22.0294L19.7455 21.2333C19.9851 21.0795 20.2182 20.9184 20.4437 20.7493C22.737 19.0293 24 16.7319 24 14.2805C24 11.6808 22.924 10.2703 22.0594 9.137V9.137ZM18.2462 4.32798V5.15736C18.2462 5.17166 18.2346 5.18327 18.2203 5.18327H15.7322C15.7179 5.18327 15.7063 5.17166 15.7063 5.15736V4.32798C15.7063 4.31367 15.7179 4.30206 15.7322 4.30206H18.2203C18.2346 4.30206 18.2462 4.31367 18.2462 4.32798ZM9.07127 5.15736V4.32798C9.07127 4.31367 9.08289 4.30206 9.09719 4.30206H11.5853C11.5996 4.30206 11.6112 4.31367 11.6112 4.32798V5.15736C11.6112 5.17166 11.5996 5.18327 11.5853 5.18327H9.09719C9.08289 5.18327 9.07127 5.17166 9.07127 5.15736ZM10.73 2.66923C10.73 2.65493 10.7416 2.64332 10.7559 2.64332H13.2441C13.2584 2.64332 13.27 2.65493 13.27 2.66923V3.49861C13.27 3.51291 13.2584 3.52453 13.2441 3.52453H10.7559C10.7416 3.52453 10.73 3.51291 10.73 3.49861V2.66923ZM12.3888 5.15736V4.32798C12.3888 4.31367 12.4004 4.30206 12.4147 4.30206H14.9028C14.9171 4.30206 14.9287 4.31367 14.9287 4.32798V5.15736C14.9287 5.17166 14.9171 5.18327 14.9028 5.18327H12.4147C12.4004 5.18327 12.3888 5.17166 12.3888 5.15736ZM16.5875 2.66923V3.49861C16.5875 3.51291 16.5759 3.52453 16.5616 3.52453H14.0734C14.0591 3.52453 14.0475 3.51291 14.0475 3.49861V2.66923C14.0475 2.65493 14.0591 2.64332 14.0734 2.64332H16.5616C16.5759 2.64332 16.5875 2.65493 16.5875 2.66923ZM12.4147 0.984569H14.9028C14.9171 0.984569 14.9287 0.99618 14.9287 1.01049V1.83986C14.9287 1.85417 14.9171 1.86578 14.9028 1.86578H12.4147C12.4004 1.86578 12.3888 1.85417 12.3888 1.83986V1.01049C12.3888 0.99618 12.4004 0.984569 12.4147 0.984569ZM9.07127 1.83986V1.01049C9.07127 0.99618 9.08289 0.984569 9.09719 0.984569H11.5853C11.5996 0.984569 11.6112 0.99618 11.6112 1.01049V1.83986C11.6112 1.85417 11.5996 1.86578 11.5853 1.86578H9.09719C9.08289 1.86578 9.07127 1.85417 9.07127 1.83986ZM7.41253 3.49861V2.66923C7.41253 2.65493 7.42414 2.64332 7.43844 2.64332H9.92657C9.94087 2.64332 9.95248 2.65493 9.95248 2.66923V3.49861C9.95248 3.51291 9.94087 3.52453 9.92657 3.52453H7.43844C7.42414 3.52453 7.41253 3.51291 7.41253 3.49861ZM5.75378 5.15736V4.32798C5.75378 4.31367 5.76539 4.30206 5.7797 4.30206H8.26782C8.28213 4.30206 8.29374 4.31367 8.29374 4.32798V5.15736C8.29374 5.17166 8.28213 5.18327 8.26782 5.18327H5.7797C5.76539 5.18327 5.75378 5.17166 5.75378 5.15736ZM2.43629 6.40142C2.43629 6.15846 2.63394 5.96081 2.87689 5.96081H21.1231C21.3661 5.96081 21.5637 6.15846 21.5637 6.40142C21.5637 6.64437 21.3661 6.84202 21.1231 6.84202H2.87689C2.63394 6.84202 2.43629 6.64437 2.43629 6.40142ZM5.34454 22.7712C5.26927 22.9216 5.11796 23.015 4.9497 23.015C4.88123 23.015 4.81508 22.9993 4.7533 22.9684C4.536 22.8597 4.44762 22.5944 4.55611 22.3771L4.92715 21.635C5.1826 21.7767 5.44479 21.9098 5.71267 22.035L5.34454 22.7712V22.7712ZM19.448 22.377C19.5566 22.5944 19.4682 22.8597 19.251 22.9684C19.1891 22.9993 19.123 23.015 19.0544 23.015C18.8861 23.015 18.7349 22.9216 18.6597 22.7712L18.2907 22.0333C18.5585 21.9081 18.8207 21.7748 19.0761 21.6332L19.448 22.377V22.377ZM12 22.6001C5.81194 22.6001 0.777538 18.8679 0.777538 14.2805C0.777538 11.9435 1.7239 10.7031 2.55882 9.6086C3.0507 8.96382 3.51903 8.34946 3.64629 7.61956H20.3537C20.4809 8.34946 20.9493 8.96382 21.4411 9.6086C22.2761 10.7031 23.2225 11.9435 23.2225 14.2805C23.2225 18.8679 18.1881 22.6001 12 22.6001V22.6001Z" fill="#444349"/>
</svg>
